<svg xmlns="http://www.w3.org/2000/svg" xmlns:xlink="http://www.w3.org/1999/xlink" width="500" zoomAndPan="magnify" viewBox="0 0 375 374.999991" height="500" preserveAspectRatio="xMidYMid meet" version="1.0"><path fill="#1967d2" d="M 375 260.875 C 375 264.46875 372.640625 267.5625 369.375 268.625 L 293.484375 293.484375 L 268.625 369.375 C 267.546875 372.640625 264.453125 375 260.875 375 C 257.375 375 254.4375 372.796875 253.296875 369.78125 L 188.078125 198.59375 C 187.65625 197.6875 187.5 196.71875 187.5 195.65625 C 187.5 191.171875 191.171875 187.5 195.65625 187.5 C 196.71875 187.5 197.6875 187.65625 198.59375 188.078125 L 369.796875 253.296875 C 372.796875 254.421875 375 257.359375 375 260.875 Z M 375 260.875 " fill-opacity="1" fill-rule="nonzero"/><path fill="#202124" d="M 171.875 343.75 C 77.109375 343.75 0 266.640625 0 171.875 C 0 77.109375 77.109375 0 171.875 0 C 266.640625 0 343.75 77.109375 343.75 171.875 C 343.75 179.53125 343.25 187.0625 342.25 194.25 C 341.09375 202.796875 333.171875 208.75 324.65625 207.59375 C 316.09375 206.421875 310.125 198.53125 311.3125 189.984375 C 312.109375 184.203125 312.5 178.109375 312.5 171.875 C 312.5 94.34375 249.421875 31.25 171.875 31.25 C 94.328125 31.25 31.25 94.34375 31.25 171.875 C 31.25 249.40625 94.328125 312.5 171.875 312.5 C 178.0625 312.5 184.15625 312.09375 190 311.296875 C 198.515625 310.0625 206.4375 316.109375 207.59375 324.65625 C 208.75 333.203125 202.765625 341.078125 194.21875 342.25 C 186.984375 343.25 179.46875 343.75 171.875 343.75 Z M 171.875 343.75 " fill-opacity="1" fill-rule="nonzero"/><path fill="#202124" d="M 164.453125 265.390625 C 163.96875 265.390625 163.484375 265.375 162.984375 265.328125 C 114.484375 260.828125 77.890625 220.640625 77.890625 171.859375 C 77.890625 120.046875 120.03125 77.890625 171.859375 77.890625 C 220.796875 77.890625 260.984375 114.5625 265.328125 163.1875 C 266.09375 171.78125 259.765625 179.375 251.15625 180.140625 C 242.296875 180.78125 234.96875 174.546875 234.203125 165.96875 C 231.296875 133.5625 204.5 109.125 171.859375 109.125 C 137.28125 109.125 109.140625 137.25 109.140625 171.84375 C 109.140625 204.390625 133.546875 231.1875 165.890625 234.203125 C 174.484375 235 180.796875 242.609375 180 251.203125 C 179.25 259.3125 172.4375 265.390625 164.453125 265.390625 Z M 164.453125 265.390625 " fill-opacity="1" fill-rule="nonzero"/></svg>