<svg xmlns="http://www.w3.org/2000/svg" xmlns:xlink="http://www.w3.org/1999/xlink" width="448" zoomAndPan="magnify" viewBox="0 0 336 167.249994" height="223" preserveAspectRatio="xMidYMid meet" version="1.0"><defs><g/><clipPath id="81096d708e"><path d="M 137 82 L 182.621094 82 L 182.621094 128.332031 L 137 128.332031 Z M 137 82 " clip-rule="nonzero"/></clipPath><clipPath id="51d977e882"><path d="M 91.527344 37.238281 L 176 37.238281 L 176 122 L 91.527344 122 Z M 91.527344 37.238281 " clip-rule="nonzero"/></clipPath></defs><g fill="#202124" fill-opacity="1"><g transform="translate(37.1823, 105.144208)"><g><path d="M 20.921875 1 C 16.898438 1 13.441406 0.226562 10.546875 -1.3125 C 7.648438 -2.863281 5.179688 -4.9375 3.140625 -7.53125 C 2.921875 -7.800781 2.753906 -8.128906 2.640625 -8.515625 C 2.535156 -8.898438 2.484375 -9.285156 2.484375 -9.671875 C 2.484375 -10.722656 2.835938 -11.644531 3.546875 -12.4375 C 4.265625 -13.238281 5.125 -13.640625 6.125 -13.640625 C 6.78125 -13.640625 7.453125 -13.445312 8.140625 -13.0625 C 8.835938 -12.675781 9.457031 -12.179688 10 -11.578125 C 13.144531 -8.109375 16.785156 -6.375 20.921875 -6.375 C 24.503906 -6.375 27.410156 -7.65625 29.640625 -10.21875 C 31.878906 -12.78125 33 -16.539062 33 -21.5 L 33 -60.296875 C 33 -61.453125 33.410156 -62.425781 34.234375 -63.21875 C 35.066406 -64.019531 36.035156 -64.421875 37.140625 -64.421875 C 38.234375 -64.421875 39.179688 -64.019531 39.984375 -63.21875 C 40.785156 -62.425781 41.1875 -61.453125 41.1875 -60.296875 L 41.1875 -20.59375 C 41.1875 -16.34375 40.441406 -12.59375 38.953125 -9.34375 C 37.460938 -6.09375 35.226562 -3.554688 32.25 -1.734375 C 29.269531 0.0859375 25.492188 1 20.921875 1 Z M 20.921875 1 "/></g></g></g><g fill="#202124" fill-opacity="1"><g transform="translate(91.355256, 105.144208)"><g/></g></g><g fill="#202124" fill-opacity="1"><g transform="translate(124.020692, 105.144208)"><g/></g></g><g fill="#202124" fill-opacity="1"><g transform="translate(156.686127, 105.144208)"><g/></g></g><g fill="#202124" fill-opacity="1"><g transform="translate(189.364374, 105.144208)"><g><path d="M 8.1875 -61.03125 C 8.1875 -61.863281 8.472656 -62.566406 9.046875 -63.140625 C 9.628906 -63.722656 10.335938 -64.015625 11.171875 -64.015625 L 25.71875 -64.015625 C 32.007812 -64.015625 36.679688 -62.785156 39.734375 -60.328125 C 42.796875 -57.878906 44.328125 -54.007812 44.328125 -48.71875 C 44.328125 -44.6875 43.332031 -41.523438 41.34375 -39.234375 C 39.363281 -36.953125 36.691406 -35.285156 33.328125 -34.234375 C 34.703125 -33.910156 36.1875 -33.347656 37.78125 -32.546875 C 39.382812 -31.742188 40.914062 -30.679688 42.375 -29.359375 C 43.84375 -28.035156 45.046875 -26.394531 45.984375 -24.4375 C 46.921875 -22.476562 47.390625 -20.175781 47.390625 -17.53125 C 47.390625 -11.851562 45.484375 -7.507812 41.671875 -4.5 C 37.867188 -1.5 32.851562 0 26.625 0 L 11.171875 0 C 10.335938 0 9.628906 -0.285156 9.046875 -0.859375 C 8.472656 -1.441406 8.1875 -2.148438 8.1875 -2.984375 Z M 22.984375 -30.84375 L 16.375 -30.84375 L 16.375 -7.28125 L 26.296875 -7.28125 C 30.160156 -7.28125 33.222656 -8.101562 35.484375 -9.75 C 37.742188 -11.40625 38.925781 -14.191406 39.03125 -18.109375 C 38.976562 -21.140625 38.191406 -23.59375 36.671875 -25.46875 C 35.160156 -27.34375 33.203125 -28.707031 30.796875 -29.5625 C 28.398438 -30.414062 25.796875 -30.84375 22.984375 -30.84375 Z M 23.984375 -56.734375 L 16.375 -56.734375 L 16.375 -37.953125 L 24.734375 -37.953125 C 25.554688 -37.953125 26.597656 -38.0625 27.859375 -38.28125 C 29.128906 -38.507812 30.410156 -38.953125 31.703125 -39.609375 C 33.003906 -40.273438 34.097656 -41.253906 34.984375 -42.546875 C 35.867188 -43.847656 36.3125 -45.546875 36.3125 -47.640625 C 36.3125 -50.171875 35.71875 -52.082031 34.53125 -53.375 C 33.34375 -54.675781 31.8125 -55.5625 29.9375 -56.03125 C 28.0625 -56.5 26.078125 -56.734375 23.984375 -56.734375 Z M 23.984375 -56.734375 "/></g></g></g><g fill="#202124" fill-opacity="1"><g transform="translate(246.093868, 105.144208)"><g><path d="M 49.046875 -17.703125 C 49.046875 -12.078125 47.128906 -7.550781 43.296875 -4.125 C 39.460938 -0.707031 34.019531 1 26.96875 1 C 22.71875 1 18.925781 0.363281 15.59375 -0.90625 C 12.257812 -2.175781 9.128906 -3.941406 6.203125 -6.203125 C 5.316406 -6.859375 4.875 -7.820312 4.875 -9.09375 C 4.875 -10.09375 5.273438 -11.03125 6.078125 -11.90625 C 6.878906 -12.789062 7.832031 -13.234375 8.9375 -13.234375 C 9.875 -13.234375 10.835938 -12.898438 11.828125 -12.234375 C 12.429688 -11.847656 13.40625 -11.1875 14.75 -10.25 C 16.101562 -9.3125 17.84375 -8.429688 19.96875 -7.609375 C 22.09375 -6.785156 24.585938 -6.375 27.453125 -6.375 C 31.421875 -6.375 34.660156 -7.304688 37.171875 -9.171875 C 39.679688 -11.046875 40.9375 -13.695312 40.9375 -17.125 C 40.9375 -19.382812 40.34375 -21.1875 39.15625 -22.53125 C 37.96875 -23.882812 36.21875 -25.03125 33.90625 -25.96875 C 31.59375 -26.90625 28.726562 -27.925781 25.3125 -29.03125 C 21.394531 -30.300781 17.921875 -31.625 14.890625 -33 C 11.859375 -34.375 9.472656 -36.175781 7.734375 -38.40625 C 5.992188 -40.644531 5.125 -43.691406 5.125 -47.546875 C 5.125 -51.628906 6.0625 -54.953125 7.9375 -57.515625 C 9.8125 -60.078125 12.304688 -61.976562 15.421875 -63.21875 C 18.535156 -64.46875 21.941406 -65.09375 25.640625 -65.09375 C 27.398438 -65.09375 29.351562 -64.882812 31.5 -64.46875 C 33.65625 -64.050781 35.722656 -63.441406 37.703125 -62.640625 C 39.691406 -61.847656 41.332031 -60.941406 42.625 -59.921875 C 43.925781 -58.898438 44.578125 -57.753906 44.578125 -56.484375 C 44.578125 -55.441406 44.203125 -54.519531 43.453125 -53.71875 C 42.710938 -52.914062 41.789062 -52.515625 40.6875 -52.515625 C 39.644531 -52.515625 38.65625 -52.847656 37.71875 -53.515625 C 36.0625 -54.609375 34.320312 -55.566406 32.5 -56.390625 C 30.675781 -57.222656 28.332031 -57.640625 25.46875 -57.640625 C 22.550781 -57.640625 20.195312 -57.1875 18.40625 -56.28125 C 16.613281 -55.375 15.316406 -54.203125 14.515625 -52.765625 C 13.710938 -51.328125 13.3125 -49.785156 13.3125 -48.140625 C 13.3125 -46.097656 13.890625 -44.453125 15.046875 -43.203125 C 16.203125 -41.960938 17.910156 -40.875 20.171875 -39.9375 C 22.441406 -39.007812 25.226562 -37.960938 28.53125 -36.796875 C 31.507812 -35.804688 34.238281 -34.785156 36.71875 -33.734375 C 39.195312 -32.691406 41.359375 -31.492188 43.203125 -30.140625 C 45.054688 -28.796875 46.492188 -27.113281 47.515625 -25.09375 C 48.535156 -23.082031 49.046875 -20.617188 49.046875 -17.703125 Z M 49.046875 -17.703125 "/></g></g></g><g clip-path="url(#81096d708e)"><path fill="#1967d2" d="M 182.933594 100.828125 C 182.933594 101.703125 182.359375 102.457031 181.5625 102.714844 L 163.066406 108.777344 L 157.003906 127.273438 C 156.742188 128.070312 155.988281 128.644531 155.117188 128.644531 C 154.261719 128.644531 153.546875 128.109375 153.269531 127.375 L 137.371094 85.648438 C 137.269531 85.425781 137.230469 85.191406 137.230469 84.929688 C 137.230469 83.835938 138.125 82.941406 139.21875 82.941406 C 139.476562 82.941406 139.714844 82.980469 139.933594 83.082031 L 181.667969 98.980469 C 182.398438 99.253906 182.933594 99.972656 182.933594 100.828125 Z M 182.933594 100.828125 " fill-opacity="1" fill-rule="nonzero"/></g><g clip-path="url(#51d977e882)"><path fill="#202124" d="M 133.421875 121.027344 C 110.324219 121.027344 91.527344 102.234375 91.527344 79.132812 C 91.527344 56.035156 110.324219 37.238281 133.421875 37.238281 C 156.523438 37.238281 175.316406 56.035156 175.316406 79.132812 C 175.316406 81 175.195312 82.835938 174.953125 84.585938 C 174.667969 86.671875 172.738281 88.121094 170.664062 87.839844 C 168.574219 87.554688 167.121094 85.632812 167.410156 83.546875 C 167.605469 82.140625 167.699219 80.652344 167.699219 79.132812 C 167.699219 60.234375 152.324219 44.855469 133.421875 44.855469 C 114.519531 44.855469 99.144531 60.234375 99.144531 79.132812 C 99.144531 98.03125 114.519531 113.410156 133.421875 113.410156 C 134.929688 113.410156 136.414062 113.3125 137.839844 113.117188 C 139.917969 112.816406 141.847656 114.292969 142.128906 116.375 C 142.410156 118.457031 140.953125 120.378906 138.867188 120.664062 C 137.105469 120.90625 135.273438 121.027344 133.421875 121.027344 Z M 133.421875 121.027344 " fill-opacity="1" fill-rule="nonzero"/></g><path fill="#202124" d="M 131.613281 101.929688 C 131.496094 101.929688 131.378906 101.925781 131.253906 101.914062 C 119.433594 100.816406 110.515625 91.019531 110.515625 79.128906 C 110.515625 66.5 120.785156 56.226562 133.417969 56.226562 C 145.347656 56.226562 155.144531 65.164062 156.203125 77.015625 C 156.386719 79.109375 154.847656 80.960938 152.746094 81.148438 C 150.585938 81.304688 148.800781 79.785156 148.613281 77.695312 C 147.90625 69.796875 141.375 63.839844 133.417969 63.839844 C 124.988281 63.839844 118.132812 70.695312 118.132812 79.125 C 118.132812 87.058594 124.078125 93.589844 131.964844 94.328125 C 134.058594 94.519531 135.597656 96.375 135.402344 98.46875 C 135.21875 100.445312 133.558594 101.929688 131.613281 101.929688 Z M 131.613281 101.929688 " fill-opacity="1" fill-rule="nonzero"/></svg>